<mxfile host="app.diagrams.net" modified="2024-07-02T14:51:44.262Z" agent="Mozilla/5.0 (Windows NT 10.0; Win64; x64) AppleWebKit/537.36 (KHTML, like Gecko) Chrome/126.0.0.0 Safari/537.36 Edg/126.0.0.0" etag="5IjGiooCmxMHe1po7YOj" version="24.6.4" type="google">
  <diagram name="Página-1" id="VysxN01xKEMkQh-kHbfz">
    <mxGraphModel dx="1386" dy="785" grid="1" gridSize="10" guides="1" tooltips="1" connect="1" arrows="1" fold="1" page="1" pageScale="1" pageWidth="827" pageHeight="1169" math="0" shadow="0">
      <root>
        <mxCell id="0" />
        <mxCell id="1" parent="0" />
        <mxCell id="lmd0ya65TObM68_hO6Q6-1" value="Login" style="swimlane;childLayout=stackLayout;resizeParent=1;resizeParentMax=0;horizontal=0;startSize=20;horizontalStack=0;html=1;" vertex="1" parent="1">
          <mxGeometry y="10" width="830" height="580" as="geometry" />
        </mxCell>
        <mxCell id="lmd0ya65TObM68_hO6Q6-2" value="Usuário" style="swimlane;startSize=20;horizontal=0;html=1;" vertex="1" parent="lmd0ya65TObM68_hO6Q6-1">
          <mxGeometry x="20" width="810" height="180" as="geometry" />
        </mxCell>
        <mxCell id="lmd0ya65TObM68_hO6Q6-6" value="" style="shape=waypoint;sketch=0;fillStyle=solid;size=6;pointerEvents=1;points=[];fillColor=none;resizable=0;rotatable=0;perimeter=centerPerimeter;snapToPoint=1;" vertex="1" parent="lmd0ya65TObM68_hO6Q6-2">
          <mxGeometry x="30" y="50" width="20" height="20" as="geometry" />
        </mxCell>
        <mxCell id="lmd0ya65TObM68_hO6Q6-3" value="Sistema" style="swimlane;startSize=20;horizontal=0;html=1;" vertex="1" parent="lmd0ya65TObM68_hO6Q6-1">
          <mxGeometry x="20" y="180" width="810" height="400" as="geometry" />
        </mxCell>
        <mxCell id="lmd0ya65TObM68_hO6Q6-8" value="Realiza Login" style="rounded=1;whiteSpace=wrap;html=1;" vertex="1" parent="lmd0ya65TObM68_hO6Q6-3">
          <mxGeometry x="220" y="-150" width="120" height="60" as="geometry" />
        </mxCell>
        <mxCell id="lmd0ya65TObM68_hO6Q6-21" style="edgeStyle=orthogonalEdgeStyle;rounded=0;orthogonalLoop=1;jettySize=auto;html=1;" edge="1" parent="lmd0ya65TObM68_hO6Q6-3" source="lmd0ya65TObM68_hO6Q6-19" target="lmd0ya65TObM68_hO6Q6-8">
          <mxGeometry relative="1" as="geometry" />
        </mxCell>
        <mxCell id="lmd0ya65TObM68_hO6Q6-19" value="Realiza Cadastro" style="whiteSpace=wrap;html=1;rounded=1;" vertex="1" parent="lmd0ya65TObM68_hO6Q6-3">
          <mxGeometry x="490" y="-150" width="120" height="60" as="geometry" />
        </mxCell>
        <mxCell id="lmd0ya65TObM68_hO6Q6-37" value="Insere Dados" style="rounded=1;whiteSpace=wrap;html=1;" vertex="1" parent="lmd0ya65TObM68_hO6Q6-3">
          <mxGeometry x="90" y="-70" width="120" height="60" as="geometry" />
        </mxCell>
        <mxCell id="lmd0ya65TObM68_hO6Q6-11" style="edgeStyle=orthogonalEdgeStyle;rounded=0;orthogonalLoop=1;jettySize=auto;html=1;" edge="1" parent="lmd0ya65TObM68_hO6Q6-3" source="lmd0ya65TObM68_hO6Q6-8" target="lmd0ya65TObM68_hO6Q6-10">
          <mxGeometry relative="1" as="geometry" />
        </mxCell>
        <mxCell id="lmd0ya65TObM68_hO6Q6-20" value="" style="edgeStyle=orthogonalEdgeStyle;rounded=0;orthogonalLoop=1;jettySize=auto;html=1;" edge="1" parent="lmd0ya65TObM68_hO6Q6-3" source="lmd0ya65TObM68_hO6Q6-16" target="lmd0ya65TObM68_hO6Q6-19">
          <mxGeometry relative="1" as="geometry" />
        </mxCell>
        <mxCell id="lmd0ya65TObM68_hO6Q6-41" style="edgeStyle=orthogonalEdgeStyle;rounded=0;orthogonalLoop=1;jettySize=auto;html=1;entryX=0.5;entryY=1;entryDx=0;entryDy=0;exitX=0;exitY=0.5;exitDx=0;exitDy=0;" edge="1" parent="lmd0ya65TObM68_hO6Q6-3" source="lmd0ya65TObM68_hO6Q6-37" target="lmd0ya65TObM68_hO6Q6-31">
          <mxGeometry relative="1" as="geometry" />
        </mxCell>
        <mxCell id="lmd0ya65TObM68_hO6Q6-7" value="" style="ellipse;html=1;shape=endState;fillColor=#000000;strokeColor=#ff0000;" vertex="1" parent="lmd0ya65TObM68_hO6Q6-3">
          <mxGeometry x="770" y="45" width="30" height="30" as="geometry" />
        </mxCell>
        <mxCell id="lmd0ya65TObM68_hO6Q6-25" style="edgeStyle=orthogonalEdgeStyle;rounded=0;orthogonalLoop=1;jettySize=auto;html=1;" edge="1" parent="lmd0ya65TObM68_hO6Q6-3" source="lmd0ya65TObM68_hO6Q6-10" target="lmd0ya65TObM68_hO6Q6-16">
          <mxGeometry relative="1" as="geometry" />
        </mxCell>
        <mxCell id="lmd0ya65TObM68_hO6Q6-26" value="Não" style="edgeLabel;html=1;align=center;verticalAlign=middle;resizable=0;points=[];" vertex="1" connectable="0" parent="lmd0ya65TObM68_hO6Q6-25">
          <mxGeometry x="-0.6596" y="-2" relative="1" as="geometry">
            <mxPoint as="offset" />
          </mxGeometry>
        </mxCell>
        <mxCell id="lmd0ya65TObM68_hO6Q6-10" value="Possui Cadastro" style="rhombus;whiteSpace=wrap;html=1;" vertex="1" parent="lmd0ya65TObM68_hO6Q6-3">
          <mxGeometry x="240" y="20" width="80" height="80" as="geometry" />
        </mxCell>
        <mxCell id="lmd0ya65TObM68_hO6Q6-23" style="edgeStyle=orthogonalEdgeStyle;rounded=0;orthogonalLoop=1;jettySize=auto;html=1;entryX=0;entryY=0.5;entryDx=0;entryDy=0;" edge="1" parent="lmd0ya65TObM68_hO6Q6-3" source="lmd0ya65TObM68_hO6Q6-12" target="lmd0ya65TObM68_hO6Q6-7">
          <mxGeometry relative="1" as="geometry" />
        </mxCell>
        <mxCell id="lmd0ya65TObM68_hO6Q6-12" value="Efetua Login" style="rounded=1;whiteSpace=wrap;html=1;" vertex="1" parent="lmd0ya65TObM68_hO6Q6-3">
          <mxGeometry x="610" y="250" width="120" height="60" as="geometry" />
        </mxCell>
        <mxCell id="lmd0ya65TObM68_hO6Q6-16" value="Informa ao usuário" style="rounded=1;whiteSpace=wrap;html=1;" vertex="1" parent="lmd0ya65TObM68_hO6Q6-3">
          <mxGeometry x="490" y="30" width="120" height="60" as="geometry" />
        </mxCell>
        <mxCell id="lmd0ya65TObM68_hO6Q6-32" value="" style="edgeStyle=orthogonalEdgeStyle;rounded=0;orthogonalLoop=1;jettySize=auto;html=1;" edge="1" parent="lmd0ya65TObM68_hO6Q6-3" source="lmd0ya65TObM68_hO6Q6-29" target="lmd0ya65TObM68_hO6Q6-31">
          <mxGeometry relative="1" as="geometry" />
        </mxCell>
        <mxCell id="lmd0ya65TObM68_hO6Q6-29" value="Verificação de Dados" style="rounded=1;whiteSpace=wrap;html=1;" vertex="1" parent="lmd0ya65TObM68_hO6Q6-3">
          <mxGeometry x="90" y="190" width="120" height="60" as="geometry" />
        </mxCell>
        <mxCell id="lmd0ya65TObM68_hO6Q6-33" style="edgeStyle=orthogonalEdgeStyle;rounded=0;orthogonalLoop=1;jettySize=auto;html=1;" edge="1" parent="lmd0ya65TObM68_hO6Q6-3" source="lmd0ya65TObM68_hO6Q6-31" target="lmd0ya65TObM68_hO6Q6-12">
          <mxGeometry relative="1" as="geometry" />
        </mxCell>
        <mxCell id="lmd0ya65TObM68_hO6Q6-34" value="Sim" style="edgeLabel;html=1;align=center;verticalAlign=middle;resizable=0;points=[];" vertex="1" connectable="0" parent="lmd0ya65TObM68_hO6Q6-33">
          <mxGeometry x="-0.7167" y="1" relative="1" as="geometry">
            <mxPoint as="offset" />
          </mxGeometry>
        </mxCell>
        <mxCell id="lmd0ya65TObM68_hO6Q6-31" value="Dados corretos" style="rhombus;whiteSpace=wrap;html=1;rounded=1;" vertex="1" parent="lmd0ya65TObM68_hO6Q6-3">
          <mxGeometry x="400" y="240" width="80" height="80" as="geometry" />
        </mxCell>
        <mxCell id="lmd0ya65TObM68_hO6Q6-30" style="edgeStyle=orthogonalEdgeStyle;rounded=0;orthogonalLoop=1;jettySize=auto;html=1;exitX=0;exitY=0.5;exitDx=0;exitDy=0;" edge="1" parent="lmd0ya65TObM68_hO6Q6-3" source="lmd0ya65TObM68_hO6Q6-10" target="lmd0ya65TObM68_hO6Q6-37">
          <mxGeometry relative="1" as="geometry" />
        </mxCell>
        <mxCell id="lmd0ya65TObM68_hO6Q6-38" value="Sim" style="edgeLabel;html=1;align=center;verticalAlign=middle;resizable=0;points=[];" vertex="1" connectable="0" parent="lmd0ya65TObM68_hO6Q6-30">
          <mxGeometry x="-0.7333" relative="1" as="geometry">
            <mxPoint as="offset" />
          </mxGeometry>
        </mxCell>
        <mxCell id="lmd0ya65TObM68_hO6Q6-39" style="edgeStyle=orthogonalEdgeStyle;rounded=0;orthogonalLoop=1;jettySize=auto;html=1;" edge="1" parent="lmd0ya65TObM68_hO6Q6-3" source="lmd0ya65TObM68_hO6Q6-37" target="lmd0ya65TObM68_hO6Q6-29">
          <mxGeometry relative="1" as="geometry" />
        </mxCell>
        <mxCell id="lmd0ya65TObM68_hO6Q6-40" style="edgeStyle=orthogonalEdgeStyle;rounded=0;orthogonalLoop=1;jettySize=auto;html=1;exitX=0.25;exitY=1;exitDx=0;exitDy=0;entryX=0.25;entryY=0;entryDx=0;entryDy=0;" edge="1" parent="lmd0ya65TObM68_hO6Q6-3" source="lmd0ya65TObM68_hO6Q6-37" target="lmd0ya65TObM68_hO6Q6-29">
          <mxGeometry relative="1" as="geometry" />
        </mxCell>
        <mxCell id="lmd0ya65TObM68_hO6Q6-27" style="edgeStyle=orthogonalEdgeStyle;rounded=0;orthogonalLoop=1;jettySize=auto;html=1;exitX=1.1;exitY=0.4;exitDx=0;exitDy=0;exitPerimeter=0;" edge="1" parent="lmd0ya65TObM68_hO6Q6-1" source="lmd0ya65TObM68_hO6Q6-6" target="lmd0ya65TObM68_hO6Q6-8">
          <mxGeometry relative="1" as="geometry">
            <mxPoint x="110" y="60" as="sourcePoint" />
          </mxGeometry>
        </mxCell>
      </root>
    </mxGraphModel>
  </diagram>
</mxfile>
